# AST/ASF file generated using VICON BodyLanguage
# -----------------------------------------------
:version 1.10
:name VICON
:units
  mass 1.0
  length 0.45
  angle deg
:documentation
   .ast/.asf automatically generated from VICON data using
   VICON BodyBuilder and BodyLanguage model FoxedUp or BRILLIANT.MOD
:root
   order TX TY TZ RX RY RZ
   axis XYZ
   position 0 0 0  
   orientation 0 0 0 
:bonedata
  begin
     id 1 
     name lhipjoint
     direction 0.64773 -0.699417 0.302095 
     length 2.48597 
     axis 0 0 0  XYZ
  end
  begin
     id 2 
     name lfemur
     direction 0.34202 -0.939693 0  
     length 6.71947  
     axis 0 0 20  XYZ
    dof rx ry rz
    limits (-160.0 20.0)
           (-70.0 70.0)
           (-60.0 70.0)
  end
  begin
     id 3 
     name ltibia
     direction 0.34202 -0.939693 0   
     length 8.08777   
     axis 0 0 20   XYZ
    dof rx
    limits (-10.0 170.0)
  end
  begin
     id 4 
     name lfoot
     direction 0.0808503 -0.222134 0.971658   
     length 2.08264   
     axis -90 7.62852e-016 20   XYZ
    dof rx rz
    limits (-45.0 90.0)
           (-70.0 20.0)
  end
  begin
     id 5 
     name ltoes
     direction 1.53502e-011 -4.22007e-011 1   
     length 1.04662   
     axis -90 7.62852e-016 20   XYZ
    dof rx
    limits (-90.0 20.0)
  end
  begin
     id 6 
     name rhipjoint
     direction -0.610924 -0.726792 0.313919   
     length 2.39233  
     axis 0 0 0  XYZ 
  end
  begin
     id 7 
     name rfemur
     direction -0.34202 -0.939693 0   
     length 6.96955   
     axis 0 0 -20   XYZ
    dof rx ry rz
    limits (-160.0 20.0)
           (-70.0 70.0)
           (-70.0 60.0)
  end
  begin
     id 8 
     name rtibia
     direction -0.34202 -0.939693 0   
     length 8.19584   
     axis 0 0 -20   XYZ
    dof rx
    limits (-10.0 170.0)
 end
 begin
     id 9 
     name rfoot
     direction -0.077777 -0.213691 0.9738   
     length 2.07539  
     axis -90 -7.62852e-016 -20   XYZ
    dof rx rz
    limits (-45.0 90.0)
           (-20.0 70.0)
  end
  begin
     id 10 
     name rtoes
     direction -1.53558e-011 -4.22006e-011 1   
     length 1.04381   
     axis -90 -7.62852e-016 -20   XYZ
    dof rx
    limits (-90.0 20.0)
  end
  begin
     id 11 
     name lowerback
     direction -0.00971646 0.996074 0.0879841   
     length 1.67643   
     axis 0 0 0   XYZ
    dof rx ry rz
    limits (-20.0 45.0)
           (-30.0 30.0)
           (-30.0 30.0)
  end
  begin
     id 12 
     name upperback
     direction 0.0127391 0.991676 0.128127   
     length 1.63741   
     axis 0 0 0   XYZ
    dof rx ry rz
    limits (-20.0 45.0)
           (-30.0 30.0)
           (-30.0 30.0)
  end
  begin
     id 13 
     name thorax
     direction 0.0167583 0.996049 0.0872067   
     length 1.65931   
     axis 0 0 0   XYZ
    dof rx ry rz
    limits (-20.0 45.0)
           (-30.0 30.0)
           (-30.0 30.0)
  end
  begin
     id 14 
     name lowerneck
     direction -0.0317829 0.998312 0.0486079   
     length 1.79021   
     axis 0 0 0   XYZ
    dof rx ry rz
    limits (-20.0 45.0)
           (-30.0 30.0)
           (-30.0 30.0)
  end
  begin
     id 15 
     name upperneck
     direction 0.0896851 0.972452 -0.215159   
     length 1.78797   
     axis 0 0 0   XYZ
    dof rx ry rz
    limits (-20.0 45.0)
           (-30.0 30.0)
           (-30.0 30.0)
  end
  begin
     id 16
     name head
     direction 0.0310949 0.996503 -0.0775582  
     length 1.81549  
     axis 0 0 0   XYZ
    dof rx ry rz
    limits (-20.0 45.0)
           (-30.0 30.0)
           (-30.0 30.0)
  end
  begin
     id 17 
     name lclavicle
     direction 0.853638 0.502051 -0.138733  
     length 3.31627  
     axis 0 0 0   XYZ
    dof ry rz
    limits (-20.0 10.0)
           (0.0 20.0)
  end
  begin
     id 18 
     name lhumerus
     direction 1 -4.48962e-011 -1.41788e-018   
     length 5.54893   
     axis 180 -30 -90   XYZ
    dof rx ry rz
    limits (-60.0 90.0)
           (-90.0 90.0)
           (-90.0 90.0)
  end
  begin
     id 19
     name lradius
     direction 1 -4.48962e-011 -4.95754e-027   
     length 3.02898   
     axis 180 -30 -90   XYZ
    dof rx
    limits (-10.0 170.0)
  end
  begin
     id 20
     name lwrist
     direction 1 -4.48952e-011 -1.03764e-026   
     length 1.51449   
     axis 9.09556e-015 90 90   XYZ
    dof ry
    limits (-180.0 0.0)
 end
  begin
     id 21 
     name lhand
     direction 1 -4.4902e-011 -2.07528e-026   
     length 0.640951   
     axis 1.3242e-014 90 90   XYZ
    dof rx rz
    limits (-90.0 90.0)
           (-45.0 45.0)
  end
  begin
     id 22 
     name lfingers
     direction 1 -4.49014e-011 -4.15056e-026   
     length 0.516751   
     axis 2.64841e-014 90 90   XYZ
    dof rx
    limits (0.0 90.0)
  end
  begin
     id 23
     name lthumb
     direction 0.707107 -6.35008e-011 0.707107   
     length 0.741954   
     axis -90 45 2.85299e-015   XYZ
    dof rx rz
    limits (-45.0 45.0)
           (-45.0 45.0)
  end
  begin
     id 24 
     name rclavicle
     direction -0.888531 0.455324 -0.0565039   
     length 3.20126  
     axis 0 0 0   XYZ 
    dof ry rz
    limits (-10.0 20.0)
           (-20.0 0.0)
  end
  begin
     id 25 
     name rhumerus
     direction -1 -4.48946e-011 -8.98298e-028  
     length 5.3519   
     axis 180 30 90   XYZ
    dof rx ry rz
    limits (-90.0 60.0)
           (-90.0 90.0)
           (-90.0 90.0)
  end
  begin
     id 26 
     name rradius
     direction -1 -4.4899e-011 -3.18779e-027   
     length 3.02531   
     axis 180 30 90   XYZ
    dof rx
    limits (-10.0 170.0)
  end
  begin
     id 27 
     name rwrist
     direction -1 -4.4897e-011 -1.03764e-026   
     length 1.51266   
     axis 9.09556e-015 -90 -90   XYZ
    dof ry
    limits (-180.0 0.0)
  end
  begin
     id 28
     name rhand
     direction -1 -4.48941e-011 -2.07528e-026   
     length 0.78389   
     axis 1.3242e-014 -90 -90   XYZ
    dof rx rz
    limits (-90.0 90.0)
           (-45.0 45.0)
  end
  begin
     id 29
     name rfingers
     direction -1 -4.49012e-011 -4.15056e-026   
     length 0.631992   
     axis 2.64841e-014 -90 -90   XYZ
    dof rx
    limits (0.0 90.0)
  end
  begin
     id 30
     name rthumb
     direction -0.707107 -6.3496e-011 0.707107   
     length 0.907418   
     axis -90 -45 -2.85299e-015   XYZ
    dof rx rz
    limits (-45.0 45.0)
           (-45.0 45.0)
  end
:hierarchy
  begin
    root lhipjoint rhipjoint lowerback
    lhipjoint lfemur
    lfemur ltibia
    ltibia lfoot
    lfoot ltoes
    rhipjoint rfemur
    rfemur rtibia
    rtibia rfoot
    rfoot rtoes
    lowerback upperback
    upperback thorax
    thorax lowerneck lclavicle rclavicle
    lowerneck upperneck
    upperneck head
    lclavicle lhumerus
    lhumerus lradius
    lradius lwrist
    lwrist lhand lthumb
    lhand lfingers
    rclavicle rhumerus
    rhumerus rradius
    rradius rwrist
    rwrist rhand rthumb
    rhand rfingers
  end

#!OML:ASF E:\Style3\Style3.ASF
:FULLY-SPECIFIED
:DEGREES
1460
root -2.07497 17.458 1.77846 -871.168 59.283 -889.243
lowerback 22.6625 -0.351948 -7.85529
upperback 15.2125 0.0952319 -3.57045
thorax 4.3345 0.357906 0.592089
lowerneck -7.01345 -13.7929 -7.09666
upperneck 22.6109 -20.9703 14.4817
head 10.8049 -8.97475 3.55337
rclavicle -3.81667e-014 -5.725e-014
rhumerus 84.512 17.2765 -45.6644
rradius 19.1051
rwrist 52.0141
rhand -0.577201 18.1468
rfingers 7.12502
rthumb 25.0374 -10.2322
lclavicle -3.81667e-014 -5.725e-014
lhumerus 27.4541 -51.6915 67.7657
lradius 127.56
lwrist 75.8173
lhand -31.5339 36.1242
lfingers 7.12502
lthumb -4.79869 66.0499
rfemur -35.0315 -9.9267 26.766
rtibia 32.3376
rfoot -14.4724 -19.3911
rtoes -17.3823
lfemur -43.1116 -13.0031 -1.05436
ltibia 23.9945
lfoot -0.73237 7.47093
ltoes -34.0607
1461
root -2.07544 17.4576 1.78276 -871.148 59.1604 -889.243
lowerback 22.6625 -0.351948 -7.85529
upperback 15.2125 0.0952319 -3.57045
thorax 4.3345 0.357906 0.592089
lowerneck -7.01345 -13.7929 -7.09666
upperneck 22.6109 -20.9703 14.4817
head 10.8049 -8.97475 3.55337
rclavicle -3.81667e-014 -5.725e-014
rhumerus 84.512 17.2765 -45.6644
rradius 19.1051
rwrist 52.0141
rhand -0.577201 18.1468
rfingers 7.12502
rthumb 25.0374 -10.2322
lclavicle -3.81667e-014 -5.725e-014
lhumerus 27.4541 -51.6915 67.7657
lradius 127.56
lwrist 75.8173
lhand -31.5339 36.1242
lfingers 7.12502
lthumb -4.79869 66.0499
rfemur -35.0595 -10.0565 26.8584
rtibia 32.331
rfoot -14.386 -19.4146
rtoes -17.8211
lfemur -43.1715 -13.0964 -0.937433
ltibia 23.9567
lfoot -0.727963 7.4317
ltoes -34.1624
1462
root -2.07565 17.4575 1.78738 -871.168 59.0374 -889.259
lowerback 22.6625 -0.351948 -7.85529
upperback 15.2125 0.0952319 -3.57045
thorax 4.3345 0.357906 0.592089
lowerneck -7.01345 -13.7929 -7.09666
upperneck 22.6109 -20.9703 14.4817
head 10.8049 -8.97475 3.55337
rclavicle -3.81667e-014 -5.725e-014
rhumerus 84.512 17.2765 -45.6644
rradius 19.1051
rwrist 52.0141
rhand -0.577201 18.1468
rfingers 7.12502
rthumb 25.0374 -10.2322
lclavicle -3.81667e-014 -5.725e-014
lhumerus 27.4541 -51.6915 67.7657
lradius 127.56
lwrist 75.8173
lhand -31.5339 36.1242
lfingers 7.12502
lthumb -4.79869 66.0499
rfemur -35.0513 -10.1628 26.9239
rtibia 32.3185
rfoot -14.3132 -19.4297
rtoes -18.2362
lfemur -43.2175 -13.2328 -0.831533
ltibia 23.9401
lfoot -0.730414 7.49727
ltoes -34.1593
1463
root -2.078 17.4572 1.79009 -871.263 58.8834 -889.339
lowerback 22.6625 -0.351948 -7.85529
upperback 15.2125 0.0952319 -3.57045
thorax 4.3345 0.357906 0.592089
lowerneck -7.01345 -13.7929 -7.09666
upperneck 22.6109 -20.9703 14.4817
head 10.8049 -8.97475 3.55337
rclavicle -3.81667e-014 -5.725e-014
rhumerus 84.512 17.2765 -45.6644
rradius 19.1051
rwrist 52.0141
rhand -0.577201 18.1468
rfingers 7.12502
rthumb 25.0374 -10.2322
lclavicle -3.81667e-014 -5.725e-014
lhumerus 27.4541 -51.6915 67.7657
lradius 127.56
lwrist 75.8173
lhand -31.5339 36.1242
lfingers 7.12502
lthumb -4.79869 66.0499
rfemur -35.0198 -10.3764 26.972
rtibia 32.2781
rfoot -14.3526 -19.3499
rtoes -18.1566
lfemur -43.3018 -13.4777 -0.703216
ltibia 23.9684
lfoot -0.78632 7.59179
ltoes -33.7546
1464
root -2.07821 17.4594 1.79252 -871.34 58.7749 -889.442
lowerback 22.6625 -0.351948 -7.85529
upperback 15.2125 0.0952319 -3.57045
thorax 4.3345 0.357906 0.592089
lowerneck -7.01345 -13.7929 -7.09666
upperneck 22.6109 -20.9703 14.4817
head 10.8049 -8.97475 3.55337
rclavicle -3.81667e-014 -5.725e-014
rhumerus 84.512 17.2765 -45.6644
rradius 19.1051
rwrist 52.0141
rhand -0.577201 18.1468
rfingers 7.12502
rthumb 25.0374 -10.2322
lclavicle -3.81667e-014 -5.725e-014
lhumerus 27.4541 -51.6915 67.7657
lradius 127.56
lwrist 75.8173
lhand -31.5339 36.1242
lfingers 7.12502
lthumb -4.79869 66.0499
rfemur -35.0213 -10.5683 26.9956
rtibia 32.2385
rfoot -14.3733 -19.2373
rtoes -18.205
lfemur -43.3558 -13.6836 -0.611354
ltibia 23.971
lfoot -0.797857 7.6901
ltoes -33.171
1465
root -2.07844 17.4623 1.79378 -871.216 58.6621 -889.343
lowerback 22.6625 -0.351948 -7.85529
upperback 15.2125 0.0952319 -3.57045
thorax 4.3345 0.357906 0.592089
lowerneck -7.01345 -13.7929 -7.09666
upperneck 22.6109 -20.9703 14.4817
head 10.8049 -8.97475 3.55337
rclavicle -3.81667e-014 -5.725e-014
rhumerus 84.512 17.2765 -45.6644
rradius 19.1051
rwrist 52.0141
rhand -0.577201 18.1468
rfingers 7.12502
rthumb 25.0374 -10.2322
lclavicle -3.81667e-014 -5.725e-014
lhumerus 27.4541 -51.6915 67.7657
lradius 127.56
lwrist 75.8173
lhand -31.5339 36.1242
lfingers 7.12502
lthumb -4.79869 66.0499
rfemur -35.036 -10.622 27.0977
rtibia 32.2015
rfoot -14.4593 -19.1697
rtoes -17.8448
lfemur -43.3853 -13.7657 -0.464346
ltibia 23.9251
lfoot -0.716492 7.69153
ltoes -33.1566
1466
root -2.07862 17.4593 1.79519 -871.176 58.5639 -889.357
lowerback 22.6625 -0.351948 -7.85529
upperback 15.2125 0.0952319 -3.57045
thorax 4.3345 0.357906 0.592089
lowerneck -7.01345 -13.7929 -7.09666
upperneck 22.6109 -20.9703 14.4817
head 10.8049 -8.97475 3.55337
rclavicle -3.81667e-014 -5.725e-014
rhumerus 84.512 17.2765 -45.6644
rradius 19.1051
rwrist 52.0141
rhand -0.577201 18.1468
rfingers 7.12502
rthumb 25.0374 -10.2322
lclavicle -3.81667e-014 -5.725e-014
lhumerus 27.4541 -51.6915 67.7657
lradius 127.56
lwrist 75.8173
lhand -31.5339 36.1242
lfingers 7.12502
lthumb -4.79869 66.0499
rfemur -35.0664 -10.6876 27.1435
rtibia 32.153
rfoot -14.479 -19.1591
rtoes -17.5843
lfemur -43.4864 -13.8715 -0.361458
ltibia 23.8486
lfoot -0.67659 7.72255
ltoes -33.5301
1467
root -2.07705 17.4568 1.79693 -871.123 58.4517 -889.349
lowerback 22.6625 -0.351948 -7.85529
upperback 15.2125 0.0952319 -3.57045
thorax 4.3345 0.357906 0.592089
lowerneck -7.01345 -13.7929 -7.09666
upperneck 22.6109 -20.9703 14.4817
head 10.8049 -8.97475 3.55337
rclavicle -3.81667e-014 -5.725e-014
rhumerus 84.512 17.2765 -45.6644
rradius 19.1051
rwrist 52.0141
rhand -0.577201 18.1468
rfingers 7.12502
rthumb 25.0374 -10.2322
lclavicle -3.81667e-014 -5.725e-014
lhumerus 27.4541 -51.6915 67.7657
lradius 127.56
lwrist 75.8173
lhand -31.5339 36.1242
lfingers 7.12502
lthumb -4.79869 66.0499
rfemur -35.0814 -10.7683 27.2095
rtibia 32.0945
rfoot -14.5203 -19.1245
rtoes -17.5591
lfemur -43.5458 -13.9516 -0.254687
ltibia 23.7186
lfoot -0.685701 7.74188
ltoes -33.567
1468
root -2.07579 17.4592 1.79764 -871.005 58.2842 -889.247
lowerback 22.6625 -0.351948 -7.85529
upperback 15.2125 0.0952319 -3.57045
thorax 4.3345 0.357906 0.592089
lowerneck -7.01345 -13.7929 -7.09666
upperneck 22.6109 -20.9703 14.4817
head 10.8049 -8.97475 3.55337
rclavicle -3.81667e-014 -5.725e-014
rhumerus 84.512 17.2765 -45.6644
rradius 19.1051
rwrist 52.0141
rhand -0.577201 18.1468
rfingers 7.12502
rthumb 25.0374 -10.2322
lclavicle -3.81667e-014 -5.725e-014
lhumerus 27.4541 -51.6915 67.7657
lradius 127.56
lwrist 75.8173
lhand -31.5339 36.1242
lfingers 7.12502
lthumb -4.79869 66.0499
rfemur -35.0688 -10.8111 27.3288
rtibia 32.0289
rfoot -14.5543 -19.1639
rtoes -17.4645
lfemur -43.5529 -14.1579 -0.00657298
ltibia 23.5352
lfoot -0.705319 7.8563
ltoes -33.0346
1469
root -2.07444 17.4623 1.79821 -871.03 58.1726 -889.303
lowerback 22.6625 -0.351948 -7.85529
upperback 15.2125 0.0952319 -3.57045
thorax 4.3345 0.357906 0.592089
lowerneck -7.01345 -13.7929 -7.09666
upperneck 22.6109 -20.9703 14.4817
head 10.8049 -8.97475 3.55337
rclavicle -3.81667e-014 -5.725e-014
rhumerus 84.512 17.2765 -45.6644
rradius 19.1051
rwrist 52.0141
rhand -0.577201 18.1468
rfingers 7.12502
rthumb 25.0374 -10.2322
lclavicle -3.81667e-014 -5.725e-014
lhumerus 27.4541 -51.6915 67.7657
lradius 127.56
lwrist 75.8173
lhand -31.5339 36.1242
lfingers 7.12502
lthumb -4.79869 66.0499
rfemur -35.038 -10.9034 27.3597
rtibia 31.9409
rfoot -14.4317 -19.2233
rtoes -17.7377
lfemur -43.5297 -14.3409 0.0947179
ltibia 23.3633
lfoot -0.676454 7.95809
ltoes -32.8873
1470
root -2.07124 17.4638 1.7984 -870.989 58.0669 -889.306
lowerback 22.6625 -0.351948 -7.85529
upperback 15.2125 0.0952319 -3.57045
thorax 4.3345 0.357906 0.592089
lowerneck -7.01345 -13.7929 -7.09666
upperneck 22.6109 -20.9703 14.4817
head 10.8049 -8.97475 3.55337
rclavicle -3.81667e-014 -5.725e-014
rhumerus 84.512 17.2765 -45.6644
rradius 19.1051
rwrist 52.0141
rhand -0.577201 18.1468
rfingers 7.12502
rthumb 25.0374 -10.2322
lclavicle -3.81667e-014 -5.725e-014
lhumerus 27.4541 -51.6915 67.7657
lradius 127.56
lwrist 75.8173
lhand -31.5339 36.1242
lfingers 7.12502
lthumb -4.79869 66.0499
rfemur -35.0168 -10.9945 27.4263
rtibia 31.825
rfoot -14.3458 -19.236
rtoes -17.8474
lfemur -43.5401 -14.484 0.215562
ltibia 23.2259
lfoot -0.605709 8.04312
ltoes -32.8648
1471
root -2.06705 17.4655 1.79822 -870.894 57.9568 -889.276
lowerback 22.6625 -0.351948 -7.85529
upperback 15.2125 0.0952319 -3.57045
thorax 4.3345 0.357906 0.592089
lowerneck -7.01345 -13.7929 -7.09666
upperneck 22.6109 -20.9703 14.4817
head 10.8049 -8.97475 3.55337
rclavicle -3.81667e-014 -5.725e-014
rhumerus 84.512 17.2765 -45.6644
rradius 19.1051
rwrist 52.0141
rhand -0.577201 18.1468
rfingers 7.12502
rthumb 25.0374 -10.2322
lclavicle -3.81667e-014 -5.725e-014
lhumerus 27.4541 -51.6915 67.7657
lradius 127.56
lwrist 75.8173
lhand -31.5339 36.1242
lfingers 7.12502
lthumb -4.79869 66.0499
rfemur -35.0122 -11.0205 27.4895
rtibia 31.7098
rfoot -14.3808 -19.2364
rtoes -17.6895
lfemur -43.5974 -14.6594 0.400626
ltibia 23.104
lfoot -0.566166 8.22418
ltoes -32.647
1472
root -2.06348 17.4674 1.79731 -870.785 57.8074 -889.213
lowerback 22.6625 -0.351948 -7.85529
upperback 15.2125 0.0952319 -3.57045
thorax 4.3345 0.357906 0.592089
lowerneck -7.01345 -13.7929 -7.09666
upperneck 22.6109 -20.9703 14.4817
head 10.8049 -8.97475 3.55337
rclavicle -3.81667e-014 -5.725e-014
rhumerus 84.512 17.2765 -45.6644
rradius 19.1051
rwrist 52.0141
rhand -0.577201 18.1468
rfingers 7.12502
rthumb 25.0374 -10.2322
lclavicle -3.81667e-014 -5.725e-014
lhumerus 27.4541 -51.6915 67.7657
lradius 127.56
lwrist 75.8173
lhand -31.5339 36.1242
lfingers 7.12502
lthumb -4.79869 66.0499
rfemur -34.9961 -11.0426 27.5854
rtibia 31.6056
rfoot -14.3039 -19.359
rtoes -18.0137
lfemur -43.6437 -14.8678 0.618791
ltibia 22.9831
lfoot -0.547428 8.41084
ltoes -32.7158
1473
root -2.06007 17.4695 1.79577 -870.657 57.6557 -889.098
lowerback 22.6625 -0.351948 -7.85529
upperback 15.2125 0.0952319 -3.57045
thorax 4.3345 0.357906 0.592089
lowerneck -7.01345 -13.7929 -7.09666
upperneck 22.6109 -20.9703 14.4817
head 10.8049 -8.97475 3.55337
rclavicle -3.81667e-014 -5.725e-014
rhumerus 84.512 17.2765 -45.6644
rradius 19.1051
rwrist 52.0141
rhand -0.577201 18.1468
rfingers 7.12502
rthumb 25.0374 -10.2322
lclavicle -3.81667e-014 -5.725e-014
lhumerus 27.4541 -51.6915 67.7657
lradius 127.56
lwrist 75.8173
lhand -31.5339 36.1242
lfingers 7.12502
lthumb -4.79869 66.0499
rfemur -34.9381 -11.0674 27.6968
rtibia 31.4912
rfoot -14.2993 -19.3904
rtoes -17.9553
lfemur -43.6583 -14.9976 0.805839
ltibia 22.8892
lfoot -0.54188 8.48268
ltoes -32.6288
1474
root -2.05609 17.4707 1.79486 -870.597 57.5387 -889.089
lowerback 22.6625 -0.351948 -7.85529
upperback 15.2125 0.0952319 -3.57045
thorax 4.3345 0.357906 0.592089
lowerneck -7.01345 -13.7929 -7.09666
upperneck 22.6109 -20.9703 14.4817
head 10.8049 -8.97475 3.55337
rclavicle -3.81667e-014 -5.725e-014
rhumerus 84.512 17.2765 -45.6644
rradius 19.1051
rwrist 52.0141
rhand -0.577201 18.1468
rfingers 7.12502
rthumb 25.0374 -10.2322
lclavicle -3.81667e-014 -5.725e-014
lhumerus 27.4541 -51.6915 67.7657
lradius 127.56
lwrist 75.8173
lhand -31.5339 36.1242
lfingers 7.12502
lthumb -4.79869 66.0499
rfemur -34.9056 -11.0593 27.7356
rtibia 31.3656
rfoot -14.2741 -19.4512
rtoes -17.7603
lfemur -43.7312 -15.1523 0.956411
ltibia 22.8306
lfoot -0.537136 8.60184
ltoes -32.5206
